# Blender v2.79 (sub 0) OBJ File: 'agua.blend'
# www.blender.org
mtllib agua.mtl
o Plane
v 13.931685 5.719336 -4.119082
v -12.320317 5.739343 1.510031
v 14.739100 5.719336 6.749388
v -10.758379 5.719336 8.174186
v -6.065310 5.719336 12.940323
v 3.036715 5.920995 14.736972
v 9.934261 5.719336 12.240141
v 16.326355 5.719336 0.517626
v 12.904615 5.719336 9.719751
v 14.194954 5.719336 8.234570
v -3.031302 5.786556 13.976758
v 0.002707 5.853775 14.612702
v 1.519711 5.887385 15.095139
v -5.053974 5.741743 13.569887
v -4.042638 5.764149 13.853472
v 4.761101 5.870580 14.112765
v 6.485488 5.820165 13.782678
v 8.209875 5.769751 13.220039
vt 0.525564 0.594660
vt 0.037797 0.057913
vt 0.330597 0.579603
vt 0.000077 0.239415
vt 0.113823 0.437522
vt 0.989791 0.000077
vt 0.790866 0.515310
vt 0.999923 0.243014
vt 0.884806 0.450875
vt 0.824299 0.501433
vt 0.856203 0.482072
vt 0.146607 0.483155
vt 0.204923 0.521674
vt 0.463366 0.599570
vt 0.398969 0.596704
vt 0.645880 0.597177
vt 0.693102 0.566046
vt 0.590549 0.599570
vn -0.0321 -0.9995 -0.0078
vn 0.0000 -1.0000 0.0000
vn 0.0011 -1.0000 0.0089
vn 0.0133 -0.9999 -0.0061
vn 0.0333 -0.9989 -0.0328
vn 0.0222 -0.9998 0.0000
vn 0.0109 -0.9999 -0.0043
vn -0.0292 -0.9996 0.0000
vn 0.0168 -0.9918 0.1265
vn 0.0097 -0.9982 0.0591
usemtl Material.002
s off
f 16/1/1 1/2/1 7/3/1
f 8/4/2 3/5/2 1/2/2
f 1/2/3 16/1/3 2/6/3
f 11/7/4 4/8/4 2/6/4
f 4/8/5 11/7/5 5/9/5
f 5/9/6 15/10/6 14/11/6
f 5/9/6 11/7/6 15/10/6
f 2/6/7 16/1/7 11/7/7
f 10/12/2 9/13/2 3/5/2
f 7/3/2 1/2/2 3/5/2
f 7/3/2 3/5/2 9/13/2
f 17/14/8 7/3/8 18/15/8
f 13/16/6 12/17/6 6/18/6
f 6/18/9 12/17/9 16/1/9
f 16/1/8 7/3/8 17/14/8
f 16/1/10 12/17/10 11/7/10
